<svg width="90" height="90" viewBox="0 0 90 90" fill="none" xmlns="http://www.w3.org/2000/svg">
<circle cx="45" cy="45" r="45" fill="#976502"/>
<path d="M44.625 22C48.1656 22 51.0625 24.7 51.0625 28C51.0625 31.3 48.1656 34 44.625 34C41.0844 34 38.1875 31.3 38.1875 28C38.1875 24.7 41.0844 22 44.625 22ZM44.625 52C53.3156 52 63.2937 55.87 63.9375 58H25.3125C26.0528 55.84 35.9666 52 44.625 52ZM44.625 16C37.5116 16 31.75 21.37 31.75 28C31.75 34.63 37.5116 40 44.625 40C51.7384 40 57.5 34.63 57.5 28C57.5 21.37 51.7384 16 44.625 16ZM44.625 46C36.0309 46 18.875 50.02 18.875 58V64H70.375V58C70.375 50.02 53.2191 46 44.625 46Z" fill="white"/>
</svg>
