<svg width="90" height="90" viewBox="0 0 90 90" fill="none" xmlns="http://www.w3.org/2000/svg">
<circle cx="45" cy="45" r="45" fill="#976502"/>
<path d="M69.7 52.5625H68.4V43.4838C68.4 42.4172 67.9856 41.3926 67.2544 40.6367L59.1375 32.2467C58.4062 31.4908 57.415 31.0625 56.3831 31.0625H52.8V27.0312C52.8 24.8057 51.0531 23 48.9 23H22.9C20.7469 23 19 24.8057 19 27.0312V53.9062C19 56.1318 20.7469 57.9375 22.9 57.9375H24.2C24.2 62.3887 27.6937 66 32 66C36.3062 66 39.8 62.3887 39.8 57.9375H50.2C50.2 62.3887 53.6937 66 58 66C62.3062 66 65.8 62.3887 65.8 57.9375H69.7C70.415 57.9375 71 57.3328 71 56.5938V53.9062C71 53.1672 70.415 52.5625 69.7 52.5625ZM32 61.9688C29.8469 61.9688 28.1 60.1631 28.1 57.9375C28.1 55.7119 29.8469 53.9062 32 53.9062C34.1531 53.9062 35.9 55.7119 35.9 57.9375C35.9 60.1631 34.1531 61.9688 32 61.9688ZM58 61.9688C55.8469 61.9688 54.1 60.1631 54.1 57.9375C54.1 55.7119 55.8469 53.9062 58 53.9062C60.1531 53.9062 61.9 55.7119 61.9 57.9375C61.9 60.1631 60.1531 61.9688 58 61.9688ZM64.5 44.5H52.8V35.0938H56.3831L64.5 43.4838V44.5Z" fill="white"/>
</svg>
